<svg id="Layer_1" data-name="Layer 1" xmlns="http://www.w3.org/2000/svg" viewBox="0 0 500 200"><title>logo</title><path d="M32.06,142.13H81.67v24.81H1V33.06H32.06Z"/><path d="M221.15,100a71.94,71.94,0,0,1-5,27,63.82,63.82,0,0,1-36,36.2,74.59,74.59,0,0,1-28.44,5.24,74.93,74.93,0,0,1-28.49-5.24A63.91,63.91,0,0,1,87.05,127a71.94,71.94,0,0,1-5-27,71.93,71.93,0,0,1,5-27A64.14,64.14,0,0,1,101.2,51.26a65.32,65.32,0,0,1,22-14.43,74.93,74.93,0,0,1,28.49-5.24,74,74,0,0,1,28.44,5.29A65.48,65.48,0,0,1,202,51.35,64.47,64.47,0,0,1,216.14,73,71.68,71.68,0,0,1,221.15,100Zm-31.79,0a58.06,58.06,0,0,0-2.57-17.87,38,38,0,0,0-7.4-13.46,31.88,31.88,0,0,0-11.81-8.45,40.6,40.6,0,0,0-15.89-2.94,41.26,41.26,0,0,0-16,2.94,31.94,31.94,0,0,0-11.85,8.45,38,38,0,0,0-7.39,13.46A57.75,57.75,0,0,0,113.83,100a58.09,58.09,0,0,0,2.58,18,37.87,37.87,0,0,0,7.39,13.46,31.51,31.51,0,0,0,11.85,8.41,42,42,0,0,0,16,2.89,41.34,41.34,0,0,0,15.89-2.89,31.45,31.45,0,0,0,11.81-8.41,37.89,37.89,0,0,0,7.4-13.46A58.4,58.4,0,0,0,189.36,100Z"/><path d="M299.07,144.52a52.53,52.53,0,0,0,11.39-1.11,54.78,54.78,0,0,0,9.37-2.94v-20.3H306.6a6.42,6.42,0,0,1-4.59-1.56,5.18,5.18,0,0,1-1.66-4V97.57H348v56.5A68.46,68.46,0,0,1,325.39,165,88.77,88.77,0,0,1,312,167.58a133.26,133.26,0,0,1-15.3.83,70,70,0,0,1-27.2-5.2,65.07,65.07,0,0,1-36-36A70.55,70.55,0,0,1,228.32,100a74.09,74.09,0,0,1,5-27.51A62,62,0,0,1,247.47,50.8,64.37,64.37,0,0,1,269.8,36.65a80.69,80.69,0,0,1,29.27-5.06A85.14,85.14,0,0,1,314.78,33a77.49,77.49,0,0,1,13.55,3.77A62.07,62.07,0,0,1,348.87,49.6l-9,13.69a10,10,0,0,1-3.08,3,7.32,7.32,0,0,1-3.9,1.1,10.72,10.72,0,0,1-5.7-1.84q-3.68-2.2-6.93-3.81a42.32,42.32,0,0,0-6.67-2.62,44.26,44.26,0,0,0-7.16-1.47,69.7,69.7,0,0,0-8.46-.46,38.6,38.6,0,0,0-15.71,3.08A33.69,33.69,0,0,0,270.35,69a39.45,39.45,0,0,0-7.58,13.46,54.43,54.43,0,0,0-2.66,17.5,56.32,56.32,0,0,0,2.94,18.93,40.74,40.74,0,0,0,8.13,14,34.44,34.44,0,0,0,12.31,8.68A39.91,39.91,0,0,0,299.07,144.52Z"/><path d="M499,100a71.94,71.94,0,0,1-5,27,63.82,63.82,0,0,1-36,36.2,79.93,79.93,0,0,1-56.93,0A63.91,63.91,0,0,1,364.9,127a71.94,71.94,0,0,1-5-27,71.93,71.93,0,0,1,5-27,64.14,64.14,0,0,1,14.15-21.68,65.32,65.32,0,0,1,22-14.43,74.93,74.93,0,0,1,28.49-5.24A74,74,0,0,1,458,36.88a65.48,65.48,0,0,1,21.91,14.47A64.62,64.62,0,0,1,494,73,71.68,71.68,0,0,1,499,100Zm-31.79,0a58.06,58.06,0,0,0-2.57-17.87,38,38,0,0,0-7.4-13.46,32,32,0,0,0-11.81-8.45,40.6,40.6,0,0,0-15.89-2.94,41.26,41.26,0,0,0-16,2.94,31.94,31.94,0,0,0-11.85,8.45,38,38,0,0,0-7.39,13.46A57.75,57.75,0,0,0,391.68,100a58.09,58.09,0,0,0,2.58,18,37.87,37.87,0,0,0,7.39,13.46,31.51,31.51,0,0,0,11.85,8.41,42,42,0,0,0,16,2.89,41.34,41.34,0,0,0,15.89-2.89,31.52,31.52,0,0,0,11.81-8.41,37.89,37.89,0,0,0,7.4-13.46A58.4,58.4,0,0,0,467.21,100Z"/></svg>